<svg xmlns="http://www.w3.org/2000/svg" xmlns:xlink="http://www.w3.org/1999/xlink" width="500" zoomAndPan="magnify" viewBox="0 0 375 149.999998" height="200" preserveAspectRatio="xMidYMid meet" version="1.0"><defs><g/><clipPath id="c48f747f56"><path d="M 300 56 L 329 56 L 329 85 L 300 85 Z M 300 56 " clip-rule="nonzero"/></clipPath><clipPath id="66d2358e21"><path d="M 294.992188 61.21875 L 314.820312 42.894531 L 341.800781 72.082031 L 321.972656 90.410156 Z M 294.992188 61.21875 " clip-rule="nonzero"/></clipPath><clipPath id="8dacbd904c"><path d="M 294.992188 61.21875 L 314.820312 42.894531 L 341.800781 72.082031 L 321.972656 90.410156 Z M 294.992188 61.21875 " clip-rule="nonzero"/></clipPath><clipPath id="855677eb27"><path d="M 315 41 L 343 41 L 343 70 L 315 70 Z M 315 41 " clip-rule="nonzero"/></clipPath><clipPath id="f7a196be99"><path d="M 309.496094 46.195312 L 329.324219 27.871094 L 356.304688 57.0625 L 336.476562 75.386719 Z M 309.496094 46.195312 " clip-rule="nonzero"/></clipPath><clipPath id="e36be08d14"><path d="M 309.496094 46.195312 L 329.324219 27.871094 L 356.304688 57.0625 L 336.476562 75.386719 Z M 309.496094 46.195312 " clip-rule="nonzero"/></clipPath></defs><g fill="#23284e" fill-opacity="1"><g transform="translate(124.264517, 113.794695)"><g><path d="M 18.5 1.109375 C 15.46875 1.109375 12.695312 0.367188 10.1875 -1.109375 C 7.675781 -2.597656 5.675781 -4.582031 4.1875 -7.0625 C 2.695312 -9.539062 1.953125 -12.300781 1.953125 -15.34375 C 1.953125 -18.320312 2.664062 -21.035156 4.09375 -23.484375 C 5.519531 -25.929688 7.441406 -27.910156 9.859375 -29.421875 C 12.273438 -30.941406 14.972656 -31.734375 17.953125 -31.796875 C 16.828125 -31.609375 15.894531 -31.082031 15.15625 -30.21875 C 14.414062 -29.351562 14.046875 -28.238281 14.046875 -26.875 L 14.046875 -8.921875 C 14.046875 -6.816406 14.722656 -5.113281 16.078125 -3.8125 C 17.441406 -2.507812 19.113281 -1.625 21.09375 -1.15625 C 23.082031 -0.695312 25.007812 -0.679688 26.875 -1.109375 C 24.207031 0.429688 21.414062 1.171875 18.5 1.109375 Z M 23.4375 -16.828125 L 23.4375 -24.359375 C 23.4375 -26.960938 22.953125 -28.820312 21.984375 -29.9375 C 21.023438 -31.050781 20.019531 -31.671875 18.96875 -31.796875 C 22.1875 -31.796875 24.769531 -31.222656 26.71875 -30.078125 C 28.675781 -28.929688 30.164062 -27.503906 31.1875 -25.796875 C 32.21875 -24.097656 32.898438 -22.425781 33.234375 -20.78125 C 33.578125 -19.132812 33.75 -17.816406 33.75 -16.828125 Z M 23.4375 -16.828125 "/></g></g></g><g fill="#23284e" fill-opacity="1"><g transform="translate(159.506415, 113.794695)"><g><path d="M 24.546875 0 L 24.546875 -24.265625 C 24.546875 -25.753906 24.265625 -26.882812 23.703125 -27.65625 C 23.148438 -28.4375 22.484375 -28.945312 21.703125 -29.1875 C 20.929688 -29.4375 20.265625 -29.578125 19.703125 -29.609375 C 19.148438 -29.640625 18.875 -29.65625 18.875 -29.65625 C 22.34375 -31.519531 25.347656 -32.234375 27.890625 -31.796875 C 30.429688 -31.367188 32.414062 -30.144531 33.84375 -28.125 C 35.269531 -26.113281 35.984375 -23.585938 35.984375 -20.546875 L 35.984375 0 Z M 3.90625 0 L 3.90625 -30.96875 L 15.4375 -30.96875 L 15.4375 0 Z M 3.90625 0 "/></g></g></g><g fill="#23284e" fill-opacity="1"><g transform="translate(198.932711, 113.794695)"><g><path d="M 3.4375 0 L 3.4375 -37.75 C 3.4375 -40.039062 4.117188 -42.160156 5.484375 -44.109375 C 6.847656 -46.066406 8.847656 -47.507812 11.484375 -48.4375 C 14.117188 -49.375 17.328125 -49.375 21.109375 -48.4375 C 21.109375 -48.4375 20.796875 -48.34375 20.171875 -48.15625 C 19.554688 -47.976562 18.828125 -47.640625 17.984375 -47.140625 C 17.148438 -46.648438 16.421875 -45.9375 15.796875 -45 C 15.179688 -44.070312 14.875 -42.863281 14.875 -41.375 L 14.875 0 Z M 24.078125 -34.96875 C 22.535156 -34.96875 21.203125 -35.507812 20.078125 -36.59375 C 18.960938 -37.675781 18.40625 -38.992188 18.40625 -40.546875 C 18.40625 -42.148438 18.960938 -43.492188 20.078125 -44.578125 C 21.203125 -45.671875 22.535156 -46.21875 24.078125 -46.21875 C 25.691406 -46.21875 27.039062 -45.671875 28.125 -44.578125 C 29.207031 -43.492188 29.75 -42.148438 29.75 -40.546875 C 29.75 -38.992188 29.207031 -37.675781 28.125 -36.59375 C 27.039062 -35.507812 25.691406 -34.96875 24.078125 -34.96875 Z M 24.078125 -34.96875 "/></g></g></g><g fill="#23284e" fill-opacity="1"><g transform="translate(231.756965, 113.794695)"><g><path d="M 9.671875 -37.84375 C 8.117188 -37.84375 6.785156 -38.382812 5.671875 -39.46875 C 4.554688 -40.550781 4 -41.867188 4 -43.421875 C 4 -45.035156 4.554688 -46.382812 5.671875 -47.46875 C 6.785156 -48.550781 8.117188 -49.09375 9.671875 -49.09375 C 11.222656 -49.09375 12.539062 -48.550781 13.625 -47.46875 C 14.707031 -46.382812 15.25 -45.035156 15.25 -43.421875 C 15.25 -41.867188 14.707031 -40.550781 13.625 -39.46875 C 12.539062 -38.382812 11.222656 -37.84375 9.671875 -37.84375 Z M 3.90625 0 L 3.90625 -30.96875 L 15.4375 -30.96875 L 15.4375 0 Z M 3.90625 0 "/></g></g></g><g fill="#23284e" fill-opacity="1"><g transform="translate(251.191159, 113.794695)"><g><path d="M 20.546875 -1.015625 C 17.078125 0.773438 14.054688 1.46875 11.484375 1.0625 C 8.910156 0.664062 6.925781 -0.550781 5.53125 -2.59375 C 4.132812 -4.644531 3.4375 -7.160156 3.4375 -10.140625 L 3.4375 -30.96875 C 5.976562 -31.269531 8.347656 -32.582031 10.546875 -34.90625 C 12.753906 -37.238281 14.195312 -40.078125 14.875 -43.421875 L 14.875 -6.421875 C 14.875 -4.929688 15.148438 -3.796875 15.703125 -3.015625 C 16.265625 -2.242188 16.929688 -1.734375 17.703125 -1.484375 C 18.484375 -1.234375 19.148438 -1.09375 19.703125 -1.0625 C 20.265625 -1.03125 20.546875 -1.015625 20.546875 -1.015625 Z M 20.546875 -1.015625 "/></g></g></g><g fill="#23284e" fill-opacity="1"><g transform="translate(270.532372, 113.794695)"><g><path d="M 27.796875 -20.546875 C 26.253906 -20.546875 24.921875 -21.101562 23.796875 -22.21875 C 22.679688 -23.332031 22.125 -24.664062 22.125 -26.21875 C 22.125 -27.769531 22.679688 -29.085938 23.796875 -30.171875 C 24.921875 -31.253906 26.253906 -31.796875 27.796875 -31.796875 C 29.410156 -31.796875 30.757812 -31.253906 31.84375 -30.171875 C 32.925781 -29.085938 33.46875 -27.769531 33.46875 -26.21875 C 33.46875 -24.664062 32.925781 -23.332031 31.84375 -22.21875 C 30.757812 -21.101562 29.410156 -20.546875 27.796875 -20.546875 Z M 16.640625 1.109375 L 0.75 -30.96875 L 12.28125 -30.96875 L 22.59375 -10.96875 Z M 6.421875 18.125 C 4.867188 18.125 3.535156 17.566406 2.421875 16.453125 C 1.304688 15.335938 0.75 14.003906 0.75 12.453125 C 0.75 10.847656 1.304688 9.5 2.421875 8.40625 C 3.535156 7.320312 4.867188 6.78125 6.421875 6.78125 C 8.023438 6.78125 9.367188 7.320312 10.453125 8.40625 C 11.546875 9.5 12.09375 10.847656 12.09375 12.453125 C 12.09375 14.003906 11.546875 15.335938 10.453125 16.453125 C 9.367188 17.566406 8.023438 18.125 6.421875 18.125 Z M 6.421875 18.125 "/></g></g></g><g fill="#23284e" fill-opacity="1"><g transform="translate(304.844392, 113.794695)"><g><path d="M 9.578125 1.109375 C 8.023438 1.109375 6.691406 0.566406 5.578125 -0.515625 C 4.460938 -1.597656 3.90625 -2.914062 3.90625 -4.46875 C 3.90625 -6.070312 4.460938 -7.414062 5.578125 -8.5 C 6.691406 -9.59375 8.023438 -10.140625 9.578125 -10.140625 C 11.128906 -10.140625 12.445312 -9.59375 13.53125 -8.5 C 14.613281 -7.414062 15.15625 -6.070312 15.15625 -4.46875 C 15.15625 -2.914062 14.613281 -1.597656 13.53125 -0.515625 C 12.445312 0.566406 11.128906 1.109375 9.578125 1.109375 Z M 9.578125 1.109375 "/></g></g></g><g fill="#23284e" fill-opacity="1"><g transform="translate(30.119294, 110.682354)"><g><path d="M 42.390625 2.265625 C 42.390625 2.265625 41.101562 1.726562 38.53125 0.65625 C 35.957031 -0.40625 32.753906 -2.160156 28.921875 -4.609375 C 25.085938 -7.066406 21.253906 -10.269531 17.421875 -14.21875 C 13.597656 -18.175781 10.394531 -23.046875 7.8125 -28.828125 C 5.238281 -34.609375 3.953125 -41.328125 3.953125 -48.984375 C 3.953125 -56.773438 5.238281 -63.554688 7.8125 -69.328125 C 10.394531 -75.109375 13.597656 -80.039062 17.421875 -84.125 C 21.253906 -88.207031 25.085938 -91.535156 28.921875 -94.109375 C 32.753906 -96.691406 35.957031 -98.578125 38.53125 -99.765625 C 41.101562 -100.960938 42.390625 -101.5625 42.390625 -101.5625 C 42.390625 -101.5625 41.789062 -100.992188 40.59375 -99.859375 C 39.40625 -98.734375 38.023438 -96.441406 36.453125 -92.984375 C 34.890625 -89.523438 33.507812 -84.34375 32.3125 -77.4375 C 31.125 -70.53125 30.53125 -61.300781 30.53125 -49.75 C 30.53125 -38.1875 31.125 -28.921875 32.3125 -21.953125 C 33.507812 -14.984375 34.890625 -9.769531 36.453125 -6.3125 C 38.023438 -2.851562 39.40625 -0.5625 40.59375 0.5625 C 41.789062 1.695312 42.390625 2.265625 42.390625 2.265625 Z M 78 -66.328125 C 74.863281 -66.328125 72.164062 -67.425781 69.90625 -69.625 C 67.644531 -71.820312 66.515625 -74.488281 66.515625 -77.625 C 66.515625 -80.894531 67.644531 -83.628906 69.90625 -85.828125 C 72.164062 -88.023438 74.863281 -89.125 78 -89.125 C 81.269531 -89.125 84.003906 -88.023438 86.203125 -85.828125 C 88.398438 -83.628906 89.5 -80.894531 89.5 -77.625 C 89.5 -74.488281 88.398438 -71.820312 86.203125 -69.625 C 84.003906 -67.425781 81.269531 -66.328125 78 -66.328125 Z M 61.984375 2.265625 C 61.984375 2.265625 62.421875 0.535156 63.296875 -2.921875 C 64.179688 -6.378906 65.03125 -11.5625 65.84375 -18.46875 C 66.664062 -25.375 67.078125 -33.914062 67.078125 -44.09375 L 89.6875 -44.09375 C 89.6875 -42.457031 89.6875 -41.609375 89.6875 -41.546875 C 89.6875 -41.484375 89.6875 -41.578125 89.6875 -41.828125 C 89.6875 -42.078125 89.6875 -42.078125 89.6875 -41.828125 C 89.6875 -41.578125 89.6875 -40.507812 89.6875 -38.625 C 89.6875 -36.738281 89.6875 -33.566406 89.6875 -29.109375 C 89.6875 -24.648438 89.6875 -18.335938 89.6875 -10.171875 L 89.5 -10.171875 C 86.738281 -11.679688 83.660156 -12.4375 80.265625 -12.4375 C 75.367188 -12.4375 71.660156 -11.429688 69.140625 -9.421875 C 66.628906 -7.410156 64.242188 -3.515625 61.984375 2.265625 Z M 61.984375 2.265625 "/></g></g></g><g fill="#000000" fill-opacity="1"><g transform="translate(85.482361, 132.10954)"><g><path d="M 4.453125 -9.34375 C 5.210938 -9.34375 5.878906 -9.207031 6.453125 -8.9375 C 7.023438 -8.664062 7.5 -8.300781 7.875 -7.84375 C 8.25 -7.394531 8.53125 -6.890625 8.71875 -6.328125 C 8.914062 -5.773438 9.015625 -5.207031 9.015625 -4.625 C 9.015625 -4.039062 8.914062 -3.472656 8.71875 -2.921875 C 8.53125 -2.378906 8.25 -1.882812 7.875 -1.4375 C 7.5 -1 7.023438 -0.648438 6.453125 -0.390625 C 5.878906 -0.128906 5.210938 0 4.453125 0 L 1.140625 0 L 1.140625 -9.34375 Z M 4.453125 -1.34375 C 5.171875 -1.34375 5.769531 -1.5 6.25 -1.8125 C 6.726562 -2.132812 7.085938 -2.546875 7.328125 -3.046875 C 7.566406 -3.546875 7.6875 -4.070312 7.6875 -4.625 C 7.6875 -5.03125 7.617188 -5.429688 7.484375 -5.828125 C 7.347656 -6.234375 7.144531 -6.597656 6.875 -6.921875 C 6.601562 -7.253906 6.265625 -7.515625 5.859375 -7.703125 C 5.460938 -7.898438 4.992188 -8 4.453125 -8 L 2.46875 -8 L 2.46875 -1.34375 Z M 4.453125 -1.34375 "/></g></g></g><g fill="#000000" fill-opacity="1"><g transform="translate(98.279696, 132.10954)"><g><path d="M 4.1875 -8.109375 L 4.1875 -1.25 L 5.921875 -1.25 L 5.921875 0 L 1.140625 0 L 1.140625 -1.25 L 2.859375 -1.25 L 2.859375 -8.109375 L 1.140625 -8.109375 L 1.140625 -9.34375 L 5.921875 -9.34375 L 5.921875 -8.109375 Z M 4.1875 -8.109375 "/></g></g></g><g fill="#000000" fill-opacity="1"><g transform="translate(108.523101, 132.10954)"><g><path d="M 8.25 -6.015625 C 8.125 -6.523438 7.894531 -6.925781 7.5625 -7.21875 C 7.226562 -7.507812 6.851562 -7.71875 6.4375 -7.84375 C 6.019531 -7.976562 5.609375 -8.046875 5.203125 -8.046875 C 4.585938 -8.046875 4.03125 -7.894531 3.53125 -7.59375 C 3.039062 -7.300781 2.648438 -6.894531 2.359375 -6.375 C 2.066406 -5.863281 1.921875 -5.28125 1.921875 -4.625 C 1.921875 -3.957031 2.066406 -3.359375 2.359375 -2.828125 C 2.648438 -2.304688 3.039062 -1.894531 3.53125 -1.59375 C 4.03125 -1.300781 4.585938 -1.15625 5.203125 -1.15625 C 5.585938 -1.15625 5.972656 -1.226562 6.359375 -1.375 C 6.742188 -1.519531 7.09375 -1.738281 7.40625 -2.03125 C 7.726562 -2.320312 7.984375 -2.695312 8.171875 -3.15625 L 4.671875 -3.15625 L 4.671875 -4.53125 L 9.765625 -4.53125 C 9.734375 -4.132812 9.695312 -3.800781 9.65625 -3.53125 C 9.625 -3.257812 9.570312 -3.046875 9.5 -2.890625 C 9.289062 -2.296875 8.953125 -1.769531 8.484375 -1.3125 C 8.023438 -0.851562 7.503906 -0.492188 6.921875 -0.234375 C 6.347656 0.0234375 5.773438 0.15625 5.203125 0.15625 C 4.535156 0.15625 3.921875 0.0390625 3.359375 -0.1875 C 2.796875 -0.425781 2.300781 -0.757812 1.875 -1.1875 C 1.457031 -1.613281 1.132812 -2.117188 0.90625 -2.703125 C 0.675781 -3.285156 0.5625 -3.925781 0.5625 -4.625 C 0.5625 -5.320312 0.675781 -5.960938 0.90625 -6.546875 C 1.144531 -7.128906 1.476562 -7.632812 1.90625 -8.0625 C 2.332031 -8.488281 2.820312 -8.816406 3.375 -9.046875 C 3.9375 -9.285156 4.546875 -9.40625 5.203125 -9.40625 C 5.648438 -9.40625 6.113281 -9.34375 6.59375 -9.21875 C 7.070312 -9.101562 7.519531 -8.914062 7.9375 -8.65625 C 8.363281 -8.394531 8.734375 -8.046875 9.046875 -7.609375 C 9.359375 -7.171875 9.578125 -6.640625 9.703125 -6.015625 Z M 8.25 -6.015625 "/></g></g></g><g fill="#000000" fill-opacity="1"><g transform="translate(122.1938, 132.10954)"><g><path d="M 4.1875 -8.109375 L 4.1875 -1.25 L 5.921875 -1.25 L 5.921875 0 L 1.140625 0 L 1.140625 -1.25 L 2.859375 -1.25 L 2.859375 -8.109375 L 1.140625 -8.109375 L 1.140625 -9.34375 L 5.921875 -9.34375 L 5.921875 -8.109375 Z M 4.1875 -8.109375 "/></g></g></g><g fill="#000000" fill-opacity="1"><g transform="translate(132.437203, 132.10954)"><g><path d="M 2.890625 -8.09375 L 0.078125 -8.09375 L 0.078125 -9.359375 L 7.015625 -9.359375 L 7.015625 -8.09375 L 4.21875 -8.09375 L 4.21875 0 L 2.890625 0 Z M 2.890625 -8.09375 "/></g></g></g><g fill="#000000" fill-opacity="1"><g transform="translate(142.746781, 132.10954)"><g><path d="M 2.296875 -2.34375 L 1.390625 0 L -0.046875 0 L 3.671875 -9.390625 L 4.640625 -9.390625 L 8.359375 0 L 6.9375 0 L 6.046875 -2.34375 Z M 5.5625 -3.59375 L 4.171875 -7.25 L 2.78125 -3.59375 Z M 5.5625 -3.59375 "/></g></g></g><g fill="#000000" fill-opacity="1"><g transform="translate(154.339932, 132.10954)"><g><path d="M 6.828125 -1.34375 L 6.828125 0 L 1.140625 0 L 1.140625 -9.265625 L 2.46875 -9.265625 L 2.46875 -1.34375 Z M 6.828125 -1.34375 "/></g></g></g><g fill="#000000" fill-opacity="1"><g transform="translate(164.437782, 132.10954)"><g/></g></g><g fill="#000000" fill-opacity="1"><g transform="translate(170.936329, 132.10954)"><g><path d="M 5.765625 -6.875 C 5.703125 -7.144531 5.570312 -7.363281 5.375 -7.53125 C 5.1875 -7.707031 4.960938 -7.835938 4.703125 -7.921875 C 4.441406 -8.003906 4.179688 -8.046875 3.921875 -8.046875 C 3.597656 -8.046875 3.273438 -7.988281 2.953125 -7.875 C 2.640625 -7.769531 2.390625 -7.59375 2.203125 -7.34375 C 2.117188 -7.25 2.054688 -7.132812 2.015625 -7 C 1.984375 -6.875 1.96875 -6.75 1.96875 -6.625 C 1.96875 -6.269531 2.070312 -6.003906 2.28125 -5.828125 C 2.488281 -5.648438 2.753906 -5.53125 3.078125 -5.46875 C 3.398438 -5.40625 3.734375 -5.351562 4.078125 -5.3125 C 4.390625 -5.28125 4.710938 -5.226562 5.046875 -5.15625 C 5.390625 -5.082031 5.710938 -4.972656 6.015625 -4.828125 C 6.316406 -4.691406 6.578125 -4.503906 6.796875 -4.265625 C 7.023438 -4.023438 7.1875 -3.71875 7.28125 -3.34375 C 7.320312 -3.125 7.34375 -2.921875 7.34375 -2.734375 C 7.34375 -2.285156 7.242188 -1.882812 7.046875 -1.53125 C 6.847656 -1.1875 6.582031 -0.894531 6.25 -0.65625 C 5.914062 -0.414062 5.546875 -0.234375 5.140625 -0.109375 C 4.734375 0.015625 4.320312 0.078125 3.90625 0.078125 C 3.550781 0.078125 3.1875 0.0234375 2.8125 -0.078125 C 2.4375 -0.179688 2.085938 -0.335938 1.765625 -0.546875 C 1.441406 -0.753906 1.171875 -1.015625 0.953125 -1.328125 C 0.742188 -1.640625 0.613281 -2.003906 0.5625 -2.421875 L 0.5625 -2.671875 L 1.90625 -2.703125 L 1.921875 -2.5 L 1.921875 -2.546875 C 1.953125 -2.265625 2.070312 -2.023438 2.28125 -1.828125 C 2.488281 -1.628906 2.742188 -1.484375 3.046875 -1.390625 C 3.347656 -1.296875 3.640625 -1.25 3.921875 -1.25 C 4.253906 -1.25 4.578125 -1.304688 4.890625 -1.421875 C 5.210938 -1.535156 5.476562 -1.707031 5.6875 -1.9375 C 5.894531 -2.164062 6 -2.4375 6 -2.75 C 6 -2.84375 5.984375 -2.953125 5.953125 -3.078125 C 5.898438 -3.304688 5.769531 -3.476562 5.5625 -3.59375 C 5.351562 -3.71875 5.101562 -3.804688 4.8125 -3.859375 C 4.519531 -3.910156 4.222656 -3.953125 3.921875 -3.984375 C 3.554688 -4.015625 3.1875 -4.066406 2.8125 -4.140625 C 2.445312 -4.222656 2.101562 -4.347656 1.78125 -4.515625 C 1.46875 -4.679688 1.207031 -4.910156 1 -5.203125 C 0.789062 -5.503906 0.671875 -5.894531 0.640625 -6.375 L 0.640625 -6.359375 C 0.640625 -6.410156 0.632812 -6.453125 0.625 -6.484375 C 0.625 -6.515625 0.625 -6.550781 0.625 -6.59375 C 0.625 -7.164062 0.796875 -7.675781 1.140625 -8.125 C 1.441406 -8.53125 1.847656 -8.835938 2.359375 -9.046875 C 2.878906 -9.253906 3.40625 -9.359375 3.9375 -9.359375 C 4.414062 -9.359375 4.878906 -9.269531 5.328125 -9.09375 C 5.785156 -8.925781 6.171875 -8.660156 6.484375 -8.296875 C 6.804688 -7.941406 7.007812 -7.484375 7.09375 -6.921875 Z M 5.765625 -6.875 "/></g></g></g><g fill="#000000" fill-opacity="1"><g transform="translate(182.013407, 132.10954)"><g><path d="M 0.46875 -4.625 C 0.46875 -5.300781 0.585938 -5.929688 0.828125 -6.515625 C 1.078125 -7.097656 1.421875 -7.609375 1.859375 -8.046875 C 2.304688 -8.484375 2.816406 -8.828125 3.390625 -9.078125 C 3.972656 -9.328125 4.597656 -9.453125 5.265625 -9.453125 C 5.929688 -9.453125 6.554688 -9.328125 7.140625 -9.078125 C 7.722656 -8.828125 8.234375 -8.484375 8.671875 -8.046875 C 9.117188 -7.609375 9.460938 -7.097656 9.703125 -6.515625 C 9.953125 -5.929688 10.078125 -5.300781 10.078125 -4.625 C 10.078125 -3.957031 9.953125 -3.332031 9.703125 -2.75 C 9.460938 -2.175781 9.117188 -1.664062 8.671875 -1.21875 C 8.234375 -0.78125 7.722656 -0.4375 7.140625 -0.1875 C 6.554688 0.0507812 5.929688 0.171875 5.265625 0.171875 C 4.597656 0.171875 3.972656 0.0507812 3.390625 -0.1875 C 2.816406 -0.4375 2.304688 -0.78125 1.859375 -1.21875 C 1.421875 -1.664062 1.078125 -2.175781 0.828125 -2.75 C 0.585938 -3.332031 0.46875 -3.957031 0.46875 -4.625 Z M 1.84375 -4.625 C 1.84375 -3.988281 1.992188 -3.410156 2.296875 -2.890625 C 2.609375 -2.378906 3.019531 -1.96875 3.53125 -1.65625 C 4.050781 -1.351562 4.628906 -1.203125 5.265625 -1.203125 C 5.898438 -1.203125 6.476562 -1.351562 7 -1.65625 C 7.519531 -1.96875 7.929688 -2.378906 8.234375 -2.890625 C 8.546875 -3.410156 8.703125 -3.988281 8.703125 -4.625 C 8.703125 -5.257812 8.546875 -5.835938 8.234375 -6.359375 C 7.929688 -6.878906 7.519531 -7.296875 7 -7.609375 C 6.476562 -7.921875 5.898438 -8.078125 5.265625 -8.078125 C 4.628906 -8.078125 4.050781 -7.921875 3.53125 -7.609375 C 3.019531 -7.296875 2.609375 -6.878906 2.296875 -6.359375 C 1.992188 -5.835938 1.84375 -5.257812 1.84375 -4.625 Z M 1.84375 -4.625 "/></g></g></g><g fill="#000000" fill-opacity="1"><g transform="translate(195.856132, 132.10954)"><g><path d="M 6.828125 -1.34375 L 6.828125 0 L 1.140625 0 L 1.140625 -9.265625 L 2.46875 -9.265625 L 2.46875 -1.34375 Z M 6.828125 -1.34375 "/></g></g></g><g fill="#000000" fill-opacity="1"><g transform="translate(205.953982, 132.10954)"><g><path d="M 4.453125 0.09375 C 4.046875 0.09375 3.640625 0.03125 3.234375 -0.09375 C 2.828125 -0.21875 2.457031 -0.398438 2.125 -0.640625 C 1.789062 -0.878906 1.519531 -1.175781 1.3125 -1.53125 C 1.113281 -1.882812 1.015625 -2.300781 1.015625 -2.78125 L 1.015625 -9.359375 L 2.375 -9.359375 L 2.375 -2.765625 C 2.375 -2.429688 2.476562 -2.148438 2.6875 -1.921875 C 2.894531 -1.691406 3.15625 -1.519531 3.46875 -1.40625 C 3.789062 -1.300781 4.117188 -1.25 4.453125 -1.25 C 4.773438 -1.25 5.09375 -1.304688 5.40625 -1.421875 C 5.71875 -1.535156 5.976562 -1.707031 6.1875 -1.9375 C 6.40625 -2.164062 6.515625 -2.445312 6.515625 -2.78125 L 6.515625 -9.359375 L 7.859375 -9.359375 L 7.859375 -2.765625 C 7.859375 -2.296875 7.753906 -1.882812 7.546875 -1.53125 C 7.347656 -1.175781 7.082031 -0.878906 6.75 -0.640625 C 6.414062 -0.398438 6.046875 -0.21875 5.640625 -0.09375 C 5.242188 0.03125 4.847656 0.09375 4.453125 0.09375 Z M 4.453125 0.09375 "/></g></g></g><g fill="#000000" fill-opacity="1"><g transform="translate(218.036755, 132.10954)"><g><path d="M 2.890625 -8.09375 L 0.078125 -8.09375 L 0.078125 -9.359375 L 7.015625 -9.359375 L 7.015625 -8.09375 L 4.21875 -8.09375 L 4.21875 0 L 2.890625 0 Z M 2.890625 -8.09375 "/></g></g></g><g fill="#000000" fill-opacity="1"><g transform="translate(228.346329, 132.10954)"><g><path d="M 4.1875 -8.109375 L 4.1875 -1.25 L 5.921875 -1.25 L 5.921875 0 L 1.140625 0 L 1.140625 -1.25 L 2.859375 -1.25 L 2.859375 -8.109375 L 1.140625 -8.109375 L 1.140625 -9.34375 L 5.921875 -9.34375 L 5.921875 -8.109375 Z M 4.1875 -8.109375 "/></g></g></g><g fill="#000000" fill-opacity="1"><g transform="translate(238.589729, 132.10954)"><g><path d="M 0.46875 -4.625 C 0.46875 -5.300781 0.585938 -5.929688 0.828125 -6.515625 C 1.078125 -7.097656 1.421875 -7.609375 1.859375 -8.046875 C 2.304688 -8.484375 2.816406 -8.828125 3.390625 -9.078125 C 3.972656 -9.328125 4.597656 -9.453125 5.265625 -9.453125 C 5.929688 -9.453125 6.554688 -9.328125 7.140625 -9.078125 C 7.722656 -8.828125 8.234375 -8.484375 8.671875 -8.046875 C 9.117188 -7.609375 9.460938 -7.097656 9.703125 -6.515625 C 9.953125 -5.929688 10.078125 -5.300781 10.078125 -4.625 C 10.078125 -3.957031 9.953125 -3.332031 9.703125 -2.75 C 9.460938 -2.175781 9.117188 -1.664062 8.671875 -1.21875 C 8.234375 -0.78125 7.722656 -0.4375 7.140625 -0.1875 C 6.554688 0.0507812 5.929688 0.171875 5.265625 0.171875 C 4.597656 0.171875 3.972656 0.0507812 3.390625 -0.1875 C 2.816406 -0.4375 2.304688 -0.78125 1.859375 -1.21875 C 1.421875 -1.664062 1.078125 -2.175781 0.828125 -2.75 C 0.585938 -3.332031 0.46875 -3.957031 0.46875 -4.625 Z M 1.84375 -4.625 C 1.84375 -3.988281 1.992188 -3.410156 2.296875 -2.890625 C 2.609375 -2.378906 3.019531 -1.96875 3.53125 -1.65625 C 4.050781 -1.351562 4.628906 -1.203125 5.265625 -1.203125 C 5.898438 -1.203125 6.476562 -1.351562 7 -1.65625 C 7.519531 -1.96875 7.929688 -2.378906 8.234375 -2.890625 C 8.546875 -3.410156 8.703125 -3.988281 8.703125 -4.625 C 8.703125 -5.257812 8.546875 -5.835938 8.234375 -6.359375 C 7.929688 -6.878906 7.519531 -7.296875 7 -7.609375 C 6.476562 -7.921875 5.898438 -8.078125 5.265625 -8.078125 C 4.628906 -8.078125 4.050781 -7.921875 3.53125 -7.609375 C 3.019531 -7.296875 2.609375 -6.878906 2.296875 -6.359375 C 1.992188 -5.835938 1.84375 -5.257812 1.84375 -4.625 Z M 1.84375 -4.625 "/></g></g></g><g fill="#000000" fill-opacity="1"><g transform="translate(252.432447, 132.10954)"><g><path d="M 1.140625 -9.265625 L 2.171875 -9.265625 L 6.6875 -2.734375 L 6.6875 -9.265625 L 8 -9.265625 L 8 0 L 6.953125 0 L 2.46875 -6.46875 L 2.46875 0 L 1.140625 0 Z M 1.140625 -9.265625 "/></g></g></g><g clip-path="url(#c48f747f56)"><g clip-path="url(#66d2358e21)"><g clip-path="url(#8dacbd904c)"><path fill="#ed6211" d="M 328.367188 57.960938 L 304.5 56.902344 C 299.890625 56.695312 299.113281 65.675781 304.574219 65.824219 L 319.425781 66.226562 L 318.289062 81.167969 C 317.945312 85.71875 326.820312 86.199219 327.074219 81.574219 Z M 328.367188 57.960938 " fill-opacity="1" fill-rule="nonzero"/></g></g></g><g clip-path="url(#855677eb27)"><g clip-path="url(#f7a196be99)"><g clip-path="url(#e36be08d14)"><path fill="#ed6211" d="M 342.867188 42.9375 L 319.003906 41.878906 C 314.394531 41.675781 313.617188 50.652344 319.078125 50.800781 L 333.925781 51.203125 L 332.792969 66.144531 C 332.445312 70.695312 341.320312 71.175781 341.574219 66.550781 Z M 342.867188 42.9375 " fill-opacity="1" fill-rule="nonzero"/></g></g></g></svg>